<?xml version="1.0" standalone="no"?>
<!DOCTYPE svg PUBLIC "-//W3C//DTD SVG 20010904//EN"
 "http://www.w3.org/TR/2001/REC-SVG-20010904/DTD/svg10.dtd">
<svg version="1.0" xmlns="http://www.w3.org/2000/svg"
 width="900.000000pt" height="500.000000pt" viewBox="0 0 900.000000 500.000000"
 preserveAspectRatio="xMidYMid meet">

<g transform="translate(0.000000,500.000000) scale(0.100000,-0.100000)"
fill="#000000" stroke="none">
<path d="M5340 4852 c0 -4 9 -8 19 -8 11 0 17 4 15 8 -3 4 -12 8 -20 8 -8 0
-14 -4 -14 -8z"/>
<path d="M3740 4836 c0 -2 13 -6 29 -8 17 -2 28 -1 25 4 -5 8 -54 12 -54 4z"/>
<path d="M5244 4824 c-19 -15 -19 -15 1 -6 11 5 27 12 35 15 13 5 13 6 -1 6
-8 1 -24 -6 -35 -15z"/>
<path d="M5430 4833 c8 -3 24 -10 35 -15 20 -9 20 -9 1 6 -11 9 -27 16 -35 15
-14 0 -14 -1 -1 -6z"/>
<path d="M3870 4800 c8 -5 20 -10 25 -10 6 0 3 5 -5 10 -8 5 -19 10 -25 10 -5
0 -3 -5 5 -10z"/>
<path d="M3860 4259 c0 -5 5 -7 10 -4 6 3 10 8 10 11 0 2 -4 4 -10 4 -5 0 -10
-5 -10 -11z"/>
<path d="M5285 4250 c22 -11 54 -19 70 -19 17 0 48 8 70 19 l40 20 -35 -6
c-19 -3 -39 -10 -44 -15 -6 -5 -19 -9 -31 -9 -12 0 -25 4 -30 9 -6 5 -26 12
-45 15 l-35 6 40 -20z"/>
<path d="M3690 4228 c30 -12 98 -12 129 0 15 5 -6 8 -66 9 -65 0 -81 -2 -63
-9z"/>
<path d="M5156 4201 c-3 -5 1 -11 9 -15 9 -3 15 0 15 9 0 16 -16 20 -24 6z"/>
<path d="M5520 4195 c0 -9 6 -12 15 -9 8 4 12 10 9 15 -8 14 -24 10 -24 -6z"/>
<path d="M3550 4183 c-23 -13 -23 -14 -3 -10 12 3 24 0 27 -7 2 -6 5 -1 5 12
1 12 0 22 -1 21 -2 -1 -14 -8 -28 -16z"/>
<path d="M3921 4178 c0 -13 3 -18 5 -12 5 13 41 7 62 -9 7 -5 15 -7 18 -4 5 4
-70 47 -83 47 -2 0 -3 -10 -2 -22z"/>
<path d="M5105 4182 c-16 -9 -70 -32 -119 -52 -50 -20 -92 -43 -94 -51 -3 -9
3 -7 18 6 12 11 24 19 26 17 2 -1 23 6 47 16 23 10 68 29 100 42 31 13 57 27
57 32 0 4 -1 8 -2 7 -2 -1 -16 -8 -33 -17z"/>
<path d="M5570 4180 c8 -5 22 -9 30 -9 10 0 8 3 -5 9 -27 12 -43 12 -25 0z"/>
<path d="M3495 4162 c-6 -5 -30 -17 -55 -27 -108 -45 -150 -65 -150 -75 0 -5
15 -1 33 10 17 10 66 33 107 50 73 31 105 50 84 50 -6 0 -14 -4 -19 -8z"/>
<path d="M5620 4165 c0 -7 134 -67 153 -69 5 -1 15 -10 23 -20 8 -11 14 -15
14 -9 0 17 -32 40 -75 53 -22 7 -44 16 -50 19 -18 12 -65 31 -65 26z"/>
<path d="M4040 4135 c14 -8 30 -14 35 -14 6 0 -1 6 -15 14 -14 8 -29 14 -35
14 -5 0 1 -6 15 -14z"/>
<path d="M4095 4110 c3 -5 8 -10 11 -10 2 0 4 5 4 10 0 6 -5 10 -11 10 -5 0
-7 -4 -4 -10z"/>
<path d="M4145 4090 c17 -11 36 -20 43 -20 6 0 12 -4 12 -10 0 -5 5 -10 11
-10 19 0 -2 20 -44 40 -52 25 -60 25 -22 0z"/>
<path d="M5330 4071 c0 -5 -3 -18 -6 -28 -6 -17 -6 -17 8 1 8 10 20 16 26 12
8 -5 10 -2 6 8 -7 17 -34 22 -34 7z"/>
<path d="M3737 4055 c-5 -10 0 -15 14 -15 12 0 19 5 17 12 -6 18 -25 20 -31 3z"/>
<path d="M4875 3815 c17 -8 38 -14 47 -15 10 0 32 -7 50 -14 18 -8 65 -27 103
-41 39 -15 102 -45 140 -67 91 -53 96 -55 60 -24 -16 14 -33 25 -37 26 -4 0
-29 13 -56 29 -27 16 -60 32 -73 36 -13 3 -37 12 -54 20 -79 36 -105 45 -123
45 -12 0 -24 5 -27 10 -3 6 -18 10 -33 9 l-27 -1 30 -13z"/>
<path d="M4160 3794 c-19 -9 -48 -22 -65 -29 -16 -7 -46 -19 -65 -25 -19 -6
-48 -20 -65 -31 -16 -10 -39 -23 -50 -28 -11 -6 -31 -20 -45 -32 l-25 -21 25
14 c123 73 143 82 310 143 41 15 56 24 40 24 -14 0 -41 -6 -60 -15z"/>
<path d="M4509 3676 c-2 -3 -31 -7 -64 -11 -33 -4 -78 -11 -100 -16 -22 -5
-50 -12 -63 -15 -45 -9 -158 -56 -222 -91 -304 -166 -495 -450 -546 -810 -16
-116 -16 -130 0 -246 20 -143 41 -218 95 -333 57 -120 131 -222 232 -318 139
-133 291 -216 490 -268 113 -29 347 -32 459 -5 182 44 327 115 459 224 319
265 456 678 357 1075 -48 189 -132 343 -268 484 -125 130 -290 232 -460 283
-102 32 -353 63 -369 47z m256 -36 c74 -17 88 -21 114 -26 13 -3 40 -13 61
-24 21 -11 40 -16 44 -13 3 4 6 0 6 -7 0 -7 3 -11 6 -7 7 6 95 -41 106 -57 4
-6 8 -7 8 -3 0 26 280 -215 280 -241 0 -4 11 -20 26 -35 14 -15 22 -32 18 -39
-4 -6 -3 -8 3 -5 6 4 25 -24 44 -61 19 -37 39 -70 44 -74 6 -4 6 -8 1 -8 -5 0
-3 -7 4 -15 7 -8 9 -15 5 -15 -4 0 -2 -6 4 -13 6 -8 8 -17 4 -20 -3 -4 -2 -7
4 -7 5 0 10 -6 11 -12 0 -12 3 -25 18 -80 3 -13 6 -31 6 -41 -1 -9 2 -16 6
-13 7 4 8 0 15 -153 4 -85 3 -92 -11 -75 -14 18 -14 18 -9 -3 3 -13 1 -26 -4
-29 -5 -3 -7 -9 -4 -14 3 -5 0 -12 -6 -16 -7 -4 -9 -3 -5 4 3 6 2 13 -4 17 -6
4 -8 10 -5 15 3 4 -3 14 -12 21 -14 12 -15 11 -9 -8 4 -12 2 -24 -4 -28 -6 -3
-8 -10 -5 -15 3 -5 1 -11 -5 -15 -6 -4 -7 -11 -4 -17 4 -7 2 -8 -5 -4 -6 4 -8
13 -4 19 13 20 12 36 -3 48 -13 10 -14 8 -11 -12 4 -21 1 -25 -19 -25 -13 0
-21 2 -18 6 3 3 11 5 17 5 6 0 11 10 11 23 0 12 -4 21 -9 20 -6 -2 -8 -10 -6
-18 1 -8 -6 -3 -18 10 -11 14 -20 20 -21 15 0 -6 5 -16 11 -22 8 -8 8 -16 0
-30 -11 -16 -11 -15 -5 6 4 14 2 21 -3 18 -6 -4 -9 7 -8 26 1 18 -1 36 -4 42
-3 5 -6 25 -7 45 0 19 -3 42 -5 50 -2 8 1 14 7 13 6 -1 11 5 11 12 0 10 -4 12
-12 5 -9 -8 -14 -6 -19 5 -3 9 -2 14 2 11 5 -3 9 1 9 9 0 8 -4 12 -8 10 -13
-8 -18 22 -6 34 9 10 9 12 -2 9 -8 -2 -17 6 -19 17 -5 25 -74 176 -79 172 -2
-2 11 -35 28 -72 42 -93 61 -180 66 -305 13 -313 -167 -613 -452 -754 -137
-68 -194 -81 -370 -81 -143 1 -154 2 -245 33 -254 88 -438 271 -527 527 -20
55 -26 97 -30 199 -6 129 9 290 28 302 5 3 9 13 9 22 0 9 7 30 15 46 21 40 18
46 -5 11 -11 -16 -22 -42 -26 -57 -3 -16 -10 -26 -15 -23 -5 4 -6 -2 -2 -11 5
-13 3 -15 -8 -9 -11 6 -11 5 -2 -5 11 -12 7 -44 -6 -36 -3 2 -6 -8 -7 -22 0
-15 -4 -45 -9 -67 -4 -22 -8 -54 -9 -72 0 -17 -4 -29 -8 -27 -5 3 -8 -2 -8
-11 0 -10 5 -13 13 -9 6 5 0 -7 -16 -25 -15 -18 -25 -36 -22 -41 3 -4 -3 -14
-13 -21 -15 -12 -16 -12 -5 2 7 9 10 19 6 22 -10 10 -34 -14 -26 -27 3 -6 2
-7 -3 -3 -5 5 -9 12 -10 15 -1 13 -47 83 -51 78 -2 -2 4 -19 13 -38 10 -18 18
-35 19 -38 0 -3 4 -12 10 -20 8 -13 6 -13 -8 -2 -9 8 -15 19 -14 25 1 7 -3 11
-10 10 -8 -2 -10 4 -6 14 4 11 3 14 -5 9 -8 -5 -10 -1 -5 11 6 16 5 16 -10 4
-13 -11 -15 -17 -6 -28 7 -7 9 -16 6 -20 -4 -3 -1 -13 6 -22 10 -14 10 -14 -5
-3 -10 8 -14 20 -11 29 4 9 2 14 -3 10 -6 -3 -11 4 -11 16 -1 12 -4 34 -6 49
-2 15 0 25 4 22 5 -3 9 2 9 11 0 9 -5 13 -11 9 -8 -4 -8 0 0 15 8 14 8 21 1
21 -5 0 -1 9 10 20 11 11 20 26 20 33 -1 6 -7 1 -16 -13 l-14 -25 2 25 c2 14
8 28 13 32 6 5 5 8 -3 8 -7 0 -10 5 -6 12 4 6 8 29 10 50 2 21 10 52 18 69 8
16 10 26 4 23 -6 -4 -5 3 2 15 6 12 13 31 15 41 2 10 22 56 45 101 79 158 201
297 353 399 77 52 206 117 245 123 9 1 22 5 27 8 12 8 96 26 149 34 22 3 41 7
43 8 8 8 265 -2 308 -13z m-1042 -1072 c-6 -7 -9 -21 -8 -31 2 -9 0 -15 -5
-12 -13 8 1 55 17 55 3 0 1 -6 -4 -12z m1883 -18 c0 -12 -4 -16 -9 -11 -5 5
-6 14 -3 20 10 15 12 14 12 -9z m-156 -36 c0 -8 -19 -13 -24 -6 -3 5 1 9 9 9
8 0 15 -2 15 -3z m40 0 c0 -8 -19 -13 -24 -6 -3 5 1 9 9 9 8 0 15 -2 15 -3z
m70 1 c0 -2 -6 -8 -13 -14 -10 -8 -14 -7 -14 2 0 8 6 14 14 14 7 0 13 -1 13
-2z"/>
<path d="M4545 3400 c-3 -5 -30 -10 -58 -10 -56 -1 -127 -14 -167 -31 -102
-44 -220 -110 -220 -122 0 -4 17 4 38 18 109 72 288 126 422 126 148 1 261
-28 409 -106 47 -25 75 -36 61 -24 -14 11 -38 27 -55 35 -16 8 -37 18 -45 23
-14 8 -39 20 -123 56 -20 9 -75 19 -122 22 -47 3 -88 10 -91 15 -7 11 -41 10
-49 -2z"/>
<path d="M4515 3290 c-3 -5 -16 -10 -29 -10 -28 0 -96 -45 -125 -81 -11 -15
-28 -48 -36 -74 -48 -139 50 -402 169 -459 38 -18 102 -21 140 -6 43 16 107
82 131 135 38 86 48 115 41 122 -3 3 -1 12 4 19 6 6 11 51 11 98 0 69 -4 96
-21 131 -27 55 -105 115 -151 115 -10 0 -21 5 -24 10 -3 6 -28 10 -55 10 -27
0 -52 -4 -55 -10z m54 -20 c29 17 151 -34 189 -80 21 -26 45 -74 49 -100 7
-44 2 -146 -7 -157 -4 -4 -7 -22 -9 -39 0 -8 -5 -13 -9 -10 -4 2 -9 -4 -10
-15 -5 -56 -7 -58 -32 -36 -8 6 -6 1 5 -12 17 -21 18 -24 3 -18 -10 3 -20 2
-23 -4 -4 -5 -3 -8 2 -7 17 6 13 -13 -9 -42 -21 -29 -48 -43 -31 -17 13 20 12
34 -3 34 -10 0 -11 -4 -3 -13 7 -8 7 -14 0 -18 -6 -4 -8 -13 -5 -20 7 -18 -12
-30 -22 -15 -5 8 -3 9 7 4 11 -6 12 -5 2 5 -9 9 -9 17 -2 26 7 8 6 14 -2 20
-7 4 -9 3 -5 -4 3 -6 2 -13 -3 -16 -5 -4 -8 -18 -5 -32 3 -15 1 -23 -5 -20 -5
3 -11 1 -13 -6 -8 -23 -35 -17 -35 8 0 26 17 23 18 -4 0 -12 3 -10 10 6 5 13
7 28 4 32 -3 5 -1 11 5 15 5 3 10 11 10 18 0 6 -6 2 -14 -8 -8 -11 -11 -26 -8
-35 5 -13 3 -13 -11 -1 -14 11 -15 17 -5 28 15 18 20 45 7 37 -5 -3 -7 -9 -4
-14 3 -4 -2 -13 -10 -20 -8 -7 -13 -15 -10 -19 2 -4 -5 -20 -16 -37 -13 -20
-19 -24 -19 -12 0 9 5 20 11 23 5 4 8 12 6 18 -2 7 3 21 12 32 15 19 15 19 -4
3 -11 -9 -24 -17 -28 -16 -5 0 -12 -3 -15 -7 -4 -4 -1 -5 7 -3 7 2 15 -2 18
-8 5 -14 -29 -13 -39 1 -4 5 -2 16 5 23 14 17 19 44 6 36 -5 -3 -7 -9 -4 -14
3 -4 -2 -13 -10 -20 -11 -9 -12 -17 -4 -31 7 -13 6 -19 -1 -19 -6 0 -8 -5 -4
-12 5 -7 3 -8 -5 -4 -7 5 -10 14 -7 22 7 17 -10 28 -20 13 -5 -8 -3 -9 6 -4 9
6 11 4 5 -5 -6 -10 -17 -4 -43 26 -42 49 -75 111 -66 126 4 6 3 8 -3 5 -15 -9
-48 126 -46 186 2 73 44 151 99 183 24 14 52 27 61 29 10 2 20 4 23 5 3 1 8 2
13 1 4 0 7 4 7 10 0 8 4 8 13 1 7 -6 18 -7 26 -2z m-26 -591 c-4 -13 -9 -17
-15 -11 -11 11 -3 32 12 32 4 0 6 -9 3 -21z m40 -4 c-3 -9 -8 -14 -10 -11 -3
3 -2 9 2 15 9 16 15 13 8 -4z"/>
<path d="M4466 2781 c-3 -5 1 -14 9 -21 8 -7 12 -16 9 -21 -10 -16 3 -9 17 9
7 9 9 14 5 10 -11 -10 -38 11 -30 23 3 5 3 9 0 9 -3 0 -7 -4 -10 -9z"/>
<path d="M4434 2766 c1 -8 5 -18 8 -22 4 -3 5 1 4 10 -1 8 -5 18 -8 22 -4 3
-5 -1 -4 -10z"/>
<path d="M4559 2763 c-13 -16 -12 -17 4 -4 16 13 21 21 13 21 -2 0 -10 -8 -17
-17z"/>
<path d="M4457 2735 c-4 -8 -3 -16 1 -19 4 -3 9 4 9 15 2 23 -3 25 -10 4z"/>
<path d="M5065 3210 c3 -5 8 -10 11 -10 2 0 4 5 4 10 0 6 -5 10 -11 10 -5 0
-7 -4 -4 -10z"/>
<path d="M5260 3073 c0 -6 8 -17 18 -24 16 -13 16 -13 2 6 -8 11 -16 22 -17
24 -2 2 -3 0 -3 -6z"/>
<path d="M3835 3009 c-4 -6 -5 -12 -2 -15 2 -3 7 2 10 11 7 17 1 20 -8 4z"/>
<path d="M3632 2778 c2 -7 -2 -12 -9 -11 -14 3 -11 -23 5 -39 20 -20 13 -32
-8 -13 -18 17 -20 17 -26 1 -5 -14 -9 -15 -16 -4 -6 8 -7 5 -2 -12 6 -22 5
-23 -9 -12 -14 12 -15 9 -11 -17 3 -17 1 -39 -5 -49 -5 -10 -6 -24 -1 -32 7
-11 11 -8 21 13 l13 28 28 -46 c16 -25 33 -43 38 -40 6 4 8 11 4 16 -3 5 -10
7 -15 3 -5 -3 -9 -2 -8 3 1 4 1 10 -1 13 -1 3 -3 16 -6 30 -3 19 -2 21 6 10 9
-13 10 -13 10 0 0 12 2 12 9 2 6 -10 11 -5 20 19 6 18 14 30 17 26 3 -3 1 -14
-5 -25 -13 -25 -14 -43 -2 -23 7 10 9 6 8 -13 -2 -24 -3 -25 -15 -9 -13 18
-13 14 -3 -47 2 -11 35 46 37 64 2 12 5 38 8 58 2 21 0 41 -5 44 -6 3 -3 15 8
27 18 22 18 22 -4 4 -20 -18 -22 -18 -32 0 -6 10 -11 13 -11 7 0 -6 6 -17 14
-23 11 -9 11 -17 3 -35 -7 -14 -15 -22 -19 -20 -5 3 -4 13 2 24 7 13 6 21 -5
30 -8 7 -12 17 -8 23 4 6 1 7 -6 3 -9 -6 -9 -12 3 -25 14 -16 14 -19 0 -37
-15 -19 -15 -19 -9 2 3 13 -1 26 -10 34 -14 12 -14 15 0 30 11 12 13 20 5 25
-6 4 -9 1 -8 -7z m19 -103 c9 0 9 -1 8 -32 0 -14 -2 -13 -9 5 -5 12 -11 22
-14 22 -2 0 -2 -10 0 -22 2 -13 -1 -9 -8 9 -16 40 -28 52 -21 21 3 -17 2 -19
-5 -9 -7 10 -12 5 -22 -23 -6 -19 -16 -39 -22 -42 -6 -4 -5 3 2 16 6 12 10 31
7 41 -3 10 -1 17 4 13 5 -3 14 7 21 21 l12 27 19 -23 c11 -13 23 -24 28 -24z
m55 0 c-4 -48 -14 -55 -11 -8 2 41 3 43 9 43 2 0 3 -16 2 -35z m-95 -30 c6 15
7 12 6 -13 -2 -28 -4 -30 -14 -15 -7 9 -12 24 -12 32 1 10 3 9 7 -4 l5 -20 8
20z"/>
<path d="M5484 2778 c1 -7 6 -20 11 -28 19 -30 14 -87 -6 -74 -6 4 -6 11 1 19
8 9 8 15 0 20 -6 3 -8 10 -5 15 3 5 1 11 -4 14 -5 3 -7 -8 -6 -24 1 -16 -3
-34 -10 -40 -9 -7 -11 0 -10 28 0 21 4 42 8 48 3 6 0 11 -7 11 -9 0 -12 -11
-10 -31 3 -36 -4 -68 -15 -62 -6 4 -7 -28 -1 -44 1 -3 2 -8 2 -12 -1 -3 5 -11
12 -18 11 -8 16 -8 21 0 5 8 17 2 38 -17 22 -20 28 -23 24 -10 -11 29 3 40 24
21 10 -9 16 -21 12 -27 -3 -6 -1 -7 6 -3 6 4 9 12 6 17 -4 5 -3 19 0 30 5 16
9 18 15 9 5 -8 7 0 7 18 -1 17 -5 28 -9 26 -5 -3 -8 2 -8 11 0 9 4 14 8 11 5
-3 9 1 9 9 0 11 -4 12 -14 4 -13 -12 -19 2 -6 15 4 4 8 18 9 32 0 13 -2 22 -5
18 -3 -3 -6 -13 -7 -22 -1 -27 -15 -52 -25 -46 -5 3 -6 11 -2 17 10 16 12 67
2 61 -4 -2 -6 -16 -3 -30 3 -15 1 -23 -5 -20 -6 4 -8 -2 -6 -13 2 -11 -2 -25
-10 -31 -10 -8 -12 -5 -10 18 1 16 5 35 10 42 5 8 4 11 -2 7 -10 -7 -42 21
-35 30 2 3 1 7 -1 10 -3 3 -5 -1 -3 -9z m91 -113 c9 -15 8 -26 -4 -44 -13 -21
-16 -21 -26 -7 -13 17 -30 23 -21 7 3 -5 0 -14 -8 -20 -10 -9 -16 -8 -26 4
-10 12 -16 13 -26 4 -8 -6 -15 -9 -15 -5 -1 3 -2 9 -3 14 -1 4 -4 12 -8 17 -4
6 -3 17 3 25 7 13 9 13 9 1 0 -11 4 -10 14 4 13 18 13 18 24 -1 8 -13 11 -14
12 -5 0 11 4 9 14 -5 14 -18 16 -18 31 -3 13 13 14 18 4 24 -7 5 -10 4 -5 -3
7 -11 -12 -28 -21 -18 -8 8 17 36 30 33 6 -1 16 -11 22 -22z"/>
<path d="M5466 2655 c-3 -10 -11 -13 -18 -9 -10 6 -11 5 -1 -8 7 -8 9 -19 5
-24 -4 -4 0 -3 9 4 13 10 19 9 29 -3 7 -8 16 -13 20 -10 12 8 5 40 -9 40 -6 0
-15 6 -20 13 -7 11 -9 10 -15 -3z m36 -20 c2 3 5 -2 5 -10 0 -13 -2 -13 -17 0
-9 8 -20 12 -25 8 -4 -5 -5 -2 -1 5 6 9 11 10 20 3 7 -6 15 -9 18 -6z"/>
<path d="M5552 2647 c-6 -7 -8 -18 -4 -24 6 -9 11 -6 20 7 13 22 0 36 -16 17z"/>
<path d="M3699 2763 c-13 -16 -12 -17 4 -4 9 7 17 15 17 17 0 8 -8 3 -21 -13z"/>
<path d="M3580 2755 c5 -7 6 -16 2 -21 -4 -5 -3 -5 2 -1 15 12 15 34 0 34 -9
0 -11 -4 -4 -12z"/>
<path d="M5423 2711 c0 -11 5 -18 9 -15 4 3 5 11 1 19 -7 21 -12 19 -10 -4z"/>
<path d="M4465 2620 c3 -5 11 -10 16 -10 6 0 7 5 4 10 -3 6 -11 10 -16 10 -6
0 -7 -4 -4 -10z"/>
<path d="M4654 2614 c-18 -14 -18 -14 6 -3 31 14 36 19 24 19 -6 0 -19 -7 -30
-16z"/>
<path d="M3636 2601 c-3 -5 1 -14 8 -20 12 -10 13 -8 9 8 -6 23 -9 25 -17 12z"/>
<path d="M4538 2593 c17 -2 47 -2 65 0 17 2 3 4 -33 4 -36 0 -50 -2 -32 -4z"/>
<path d="M4330 2550 c-8 -5 -31 -16 -50 -24 -156 -65 -230 -100 -242 -114 -8
-9 -20 -46 -26 -81 l-11 -64 36 -50 c73 -99 210 -192 343 -232 83 -25 230 -30
320 -11 87 19 206 72 270 123 64 51 139 134 147 163 8 29 -14 141 -30 156 -17
17 -320 145 -326 138 -3 -3 -6 -11 -6 -17 -2 -35 -75 -332 -98 -395 -6 -18
-16 -31 -22 -29 -5 2 -17 59 -26 128 -18 142 -25 169 -44 169 -26 0 -32 -24
-61 -257 -9 -70 -23 -54 -57 62 -40 138 -77 292 -77 323 0 23 -14 27 -40 12z"/>
<path d="M4110 2076 c0 -2 8 -10 18 -17 15 -13 16 -12 3 4 -13 16 -21 21 -21
13z"/>
<path d="M4990 2059 c0 -5 5 -7 10 -4 6 3 10 8 10 11 0 2 -4 4 -10 4 -5 0 -10
-5 -10 -11z"/>
<path d="M4150 2036 c0 -2 7 -7 16 -10 8 -3 12 -2 9 4 -6 10 -25 14 -25 6z"/>
<path d="M4950 2029 c0 -5 5 -7 10 -4 6 3 10 8 10 11 0 2 -4 4 -10 4 -5 0 -10
-5 -10 -11z"/>
<path d="M4225 1992 c50 -31 161 -71 218 -80 58 -9 212 -8 265 2 56 11 255 96
224 96 -7 0 -29 -9 -49 -20 -21 -11 -45 -20 -53 -20 -8 0 -27 -7 -42 -14 -15
-8 -70 -20 -122 -26 -107 -13 -276 1 -323 25 -16 8 -35 15 -43 15 -8 0 -32 9
-53 20 -46 25 -63 26 -22 2z"/>
<path d="M3804 3604 c-18 -14 -18 -15 4 -4 12 6 22 13 22 15 0 8 -5 6 -26 -11z"/>
<path d="M5320 3616 c0 -3 9 -10 20 -16 11 -6 20 -8 20 -6 0 3 -9 10 -20 16
-11 6 -20 8 -20 6z"/>
<path d="M5864 3430 c0 -96 2 -136 3 -87 2 48 2 126 0 175 -1 48 -3 8 -3 -88z"/>
<path d="M3234 3415 c0 -99 2 -138 3 -87 2 51 2 132 0 180 -1 48 -3 6 -3 -93z"/>
<path d="M3739 3553 l-24 -28 30 25 c17 14 32 26 34 28 2 1 0 2 -6 2 -5 0 -20
-12 -34 -27z"/>
<path d="M5375 3570 c3 -5 8 -10 11 -10 2 0 4 5 4 10 0 6 -5 10 -11 10 -5 0
-7 -4 -4 -10z"/>
<path d="M5400 3546 c0 -2 7 -7 16 -10 8 -3 12 -2 9 4 -6 10 -25 14 -25 6z"/>
<path d="M3685 3510 c-3 -6 1 -7 9 -4 18 7 21 14 7 14 -6 0 -13 -4 -16 -10z"/>
<path d="M5455 3500 c3 -5 8 -10 11 -10 2 0 4 5 4 10 0 6 -5 10 -11 10 -5 0
-7 -4 -4 -10z"/>
<path d="M3251 3184 c0 -11 3 -14 6 -6 3 7 2 16 -1 19 -3 4 -6 -2 -5 -13z"/>
<path d="M5826 3135 c-6 -32 -26 -50 -26 -23 0 6 -2 9 -5 7 -6 -7 6 -49 15
-49 9 0 35 89 28 96 -3 3 -9 -11 -12 -31z"/>
<path d="M3261 3134 c0 -11 3 -14 6 -6 3 7 2 16 -1 19 -3 4 -6 -2 -5 -13z"/>
<path d="M2935 3106 c-93 -23 -140 -64 -170 -148 -19 -55 -19 -111 1 -187 34
-136 96 -224 180 -256 39 -15 52 -15 90 -5 107 30 189 174 201 351 9 129 -54
214 -178 244 -35 8 -66 14 -69 14 -3 0 -28 -6 -55 -13z m125 -30 c38 -9 91
-36 97 -52 3 -8 10 -11 16 -7 5 3 7 1 4 -4 -4 -6 0 -16 8 -23 12 -10 27 -58
30 -92 0 -3 3 -9 6 -12 10 -10 -3 -66 -15 -66 -6 0 -4 -5 4 -10 8 -5 10 -10 4
-10 -6 0 -11 -10 -10 -22 1 -13 -4 -32 -11 -44 -7 -11 -10 -24 -6 -27 3 -4 1
-7 -6 -7 -7 0 -9 -4 -6 -10 3 -5 1 -10 -4 -10 -14 0 -14 6 -1 30 7 13 7 21 0
25 -6 4 -7 11 -4 17 4 7 2 8 -5 4 -8 -5 -9 -12 -2 -20 6 -7 6 -17 1 -26 -9
-14 -11 -13 -14 9 0 5 -4 13 -9 17 -4 4 2 18 14 30 15 16 17 24 8 29 -7 5 -10
4 -6 -2 7 -12 -16 -36 -26 -27 -4 5 -3 -16 2 -33 1 -2 2 -6 2 -10 1 -5 7 -16
14 -26 17 -25 8 -60 -27 -99 -16 -18 -27 -28 -24 -23 2 6 1 17 -5 25 -6 11 -9
9 -9 -11 0 -27 -21 -51 -46 -55 -19 -3 -28 15 -26 49 2 18 -2 26 -8 22 -6 -3
-8 -10 -5 -15 3 -5 1 -12 -5 -15 -8 -5 -8 -11 0 -20 8 -9 8 -15 0 -20 -6 -4
-9 -3 -8 2 2 4 -1 8 -7 8 -5 0 -9 -4 -7 -9 2 -5 -4 -4 -12 3 -10 9 -13 22 -9
43 4 23 3 29 -6 24 -6 -4 -9 -11 -6 -16 3 -5 1 -11 -5 -15 -6 -4 -8 -10 -5
-15 3 -5 1 -12 -5 -15 -6 -4 -10 -3 -9 2 3 11 -19 63 -27 63 -3 0 -3 -8 0 -17
4 -11 -2 -9 -14 7 -33 40 -77 134 -76 163 1 14 -2 23 -6 21 -4 -3 -9 6 -9 20
-1 14 -2 41 -3 59 -1 17 3 35 9 39 7 5 6 8 -1 8 -19 0 9 68 42 103 31 32 108
72 123 62 5 -3 12 -1 15 4 6 9 45 7 96 -3z"/>
<path d="M3034 2766 c1 -13 6 -30 12 -37 22 -28 23 -37 8 -43 -11 -4 -15 -2
-11 7 2 7 -4 24 -15 37 -12 14 -19 18 -18 10 4 -26 0 -41 -9 -36 -5 3 -7 19
-6 36 1 16 -1 28 -5 25 -8 -5 -7 -45 2 -60 5 -9 -7 -55 -15 -55 -2 0 -5 12 -5
28 -2 58 -6 81 -13 76 -4 -2 -5 -16 -3 -31 4 -22 3 -24 -10 -14 -17 14 -16 32
4 57 14 17 13 18 -1 7 -9 -7 -18 -11 -21 -8 -3 3 -4 -7 -3 -22 1 -16 0 -34 -3
-40 -6 -20 -22 -5 -16 15 5 14 4 15 -5 2 -10 -14 -12 -13 -15 9 0 5 -4 13 -8
17 -4 4 -2 14 5 23 11 14 10 14 -6 2 -10 -8 -14 -18 -9 -25 5 -6 7 -17 6 -23
-1 -7 -2 -18 -3 -24 0 -5 -5 -8 -10 -4 -6 3 -8 15 -6 26 4 21 4 21 -15 4 -11
-10 -20 -23 -19 -29 0 -6 3 -6 6 2 2 6 9 9 14 6 6 -4 6 -10 0 -18 -12 -15 22
-77 41 -74 6 2 17 -8 25 -22 7 -14 13 -22 14 -17 1 4 2 10 3 15 1 4 5 13 9 20
14 21 29 1 23 -31 -6 -30 -6 -30 14 -12 11 10 17 21 15 25 -3 4 2 13 10 20 12
10 16 9 21 -3 3 -8 5 -21 3 -28 -3 -26 1 -37 14 -35 24 3 37 18 37 41 0 29 18
42 27 19 5 -14 8 -14 24 7 23 30 24 58 3 95 -12 21 -15 23 -11 8 2 -12 1 -28
-4 -35 -7 -11 -9 -10 -10 4 -1 9 -2 23 -3 30 -1 6 3 19 8 27 10 13 9 13 -6 2
-10 -8 -17 -17 -16 -20 2 -20 -3 -25 -12 -12 -6 10 -4 20 6 31 12 14 12 16 0
16 -8 0 -14 -4 -13 -8 1 -4 -2 -7 -8 -8 -5 -1 -10 8 -10 18 0 11 -3 22 -6 25
-3 4 -5 -5 -5 -18z m0 -70 c-8 -21 10 -27 32 -12 17 13 20 11 37 -22 10 -21
16 -27 14 -16 -3 12 -1 28 4 35 6 10 9 4 9 -17 0 -34 -23 -63 -35 -44 -10 16
-44 -17 -40 -39 2 -10 -3 -18 -10 -18 -7 0 -12 7 -10 16 1 9 -4 24 -13 34 -14
15 -17 16 -32 2 -15 -14 -18 -14 -30 0 -12 14 -15 14 -30 0 -15 -14 -18 -14
-30 0 -7 8 -16 12 -21 10 -4 -3 -15 8 -24 24 -8 17 -11 32 -6 36 11 6 24 -11
17 -23 -2 -4 0 -14 6 -22 8 -12 9 -11 4 5 -6 20 -6 20 9 1 11 -14 15 -16 15
-5 0 12 2 12 10 -1 9 -13 10 -13 10 0 0 13 1 13 11 0 8 -12 9 -9 4 10 -5 19
-4 22 4 10 8 -11 11 -11 12 -2 3 27 4 31 13 39 5 4 6 -3 3 -17 -12 -49 8 -53
33 -6 12 25 27 43 31 40 4 -2 6 -11 3 -18z m-109 -5 c7 22 17 19 21 -6 1 -8
-2 -13 -7 -9 -5 3 -12 -1 -15 -9 -6 -18 -32 -16 -44 3 -4 7 -6 20 -2 28 4 12
9 11 23 -7 l18 -21 6 21z"/>
<path d="M3012 2685 c1 -5 -6 -23 -17 -39 -17 -26 -20 -27 -32 -10 -7 10 -13
13 -13 7 0 -6 6 -16 14 -23 12 -9 17 -8 27 8 12 19 13 19 34 -6 l21 -25 20 26
c18 23 21 23 32 9 7 -10 5 -2 -4 17 -15 31 -18 33 -28 18 -11 -15 -14 -14 -35
6 -12 12 -21 18 -19 12z m53 -34 c4 11 9 18 12 15 3 -3 -2 -18 -12 -33 l-18
-27 -18 23 c-11 13 -16 28 -12 34 4 6 13 2 24 -12 l18 -21 6 21z"/>
<path d="M3030 2640 c6 -11 13 -20 16 -20 2 0 0 9 -6 20 -6 11 -13 20 -16 20
-2 0 0 -9 6 -20z"/>
<path d="M2906 2618 c3 -5 10 -6 15 -3 13 9 11 12 -6 12 -8 0 -12 -4 -9 -9z"/>
<path d="M2891 2674 c0 -11 3 -14 6 -6 3 7 2 16 -1 19 -3 4 -6 -2 -5 -13z"/>
<path d="M2839 2775 c-1 -3 -2 -9 -3 -15 0 -5 -5 -9 -11 -7 -5 1 -9 6 -7 10 1
5 -2 6 -8 2 -8 -5 -8 -11 -1 -19 6 -7 7 -17 3 -22 -4 -5 2 -1 14 9 11 9 21 24
21 32 0 14 -6 21 -8 10z"/>
<path d="M2895 2761 c-3 -5 -2 -12 3 -15 5 -3 9 1 9 9 0 17 -3 19 -12 6z"/>
<path d="M3183 2755 c0 -8 4 -12 9 -9 5 3 6 10 3 15 -9 13 -12 11 -12 -6z"/>
<path d="M3270 3091 c0 -6 4 -13 10 -16 6 -3 7 1 4 9 -7 18 -14 21 -14 7z"/>
<path d="M6061 3093 c-59 -12 -130 -75 -156 -135 -41 -100 3 -294 89 -394 154
-179 374 -6 377 295 2 147 -74 228 -219 236 -37 2 -78 1 -91 -2z m29 -36 c0
15 96 11 126 -5 12 -6 24 -8 28 -5 3 3 6 0 6 -7 0 -7 3 -11 6 -7 8 8 44 -25
38 -35 -3 -5 0 -7 8 -6 7 2 21 -13 30 -32 20 -40 29 -140 13 -140 -5 0 -3 -5
5 -10 8 -5 10 -10 5 -10 -6 0 -11 -9 -12 -21 -3 -35 -34 -119 -44 -119 -6 0
-7 -4 -4 -10 3 -5 -1 -20 -9 -32 -9 -12 -16 -17 -16 -10 0 7 -5 10 -10 7 -8
-5 -7 -11 1 -21 10 -12 10 -15 -1 -12 -8 2 -14 -2 -15 -9 0 -6 -4 -15 -9 -20
-5 -4 -6 -3 -2 4 3 6 2 14 -4 18 -6 4 -8 10 -5 15 3 5 0 12 -6 16 -8 4 -9 -5
-6 -30 4 -29 2 -34 -8 -26 -7 6 -10 22 -7 37 3 18 1 24 -7 19 -6 -4 -9 -11 -6
-16 3 -5 0 -12 -5 -15 -8 -5 -6 -13 5 -25 12 -14 13 -20 4 -26 -7 -4 -10 -3
-6 3 4 6 0 16 -7 23 -12 9 -17 7 -25 -8 -6 -11 -7 -23 -3 -27 4 -5 2 -5 -5 -1
-7 4 -9 14 -6 23 4 10 2 14 -4 10 -7 -4 -10 4 -8 23 1 17 -1 33 -6 36 -5 3
-10 -4 -10 -15 -1 -12 -2 -27 -3 -33 -1 -7 2 -18 6 -25 6 -7 4 -14 -4 -19 -7
-4 -10 -4 -6 1 4 4 3 14 -3 22 -9 11 -15 11 -28 1 -9 -7 -6 -1 7 13 22 25 31
66 12 54 -6 -4 -8 -10 -5 -14 2 -5 -6 -18 -20 -31 l-24 -22 5 30 c3 18 0 33
-7 38 -8 5 -10 2 -7 -8 4 -8 2 -21 -3 -29 -8 -12 -10 -12 -8 1 3 33 -2 45 -11
25 -8 -18 -9 -18 -9 -2 -1 12 -6 16 -13 11 -7 -4 -10 -4 -6 1 4 4 -2 21 -13
36 -11 16 -17 29 -13 29 5 0 3 5 -3 11 -6 6 -9 18 -6 27 5 11 3 13 -8 7 -11
-7 -11 -5 1 10 8 10 10 16 4 12 -18 -10 -26 20 -30 102 -3 83 13 127 64 172
28 26 69 45 85 41 4 -1 7 4 7 11 0 8 4 7 10 -3 6 -9 10 -10 10 -3z"/>
<path d="M5953 2778 c1 -7 -4 -12 -11 -10 -8 1 -11 -2 -7 -8 5 -8 11 -8 21 1
7 6 11 15 8 20 -8 13 -14 11 -11 -3z"/>
<path d="M6162 2778 c2 -7 -2 -12 -8 -11 -12 2 -15 -27 -4 -42 4 -5 -1 -26
-11 -45 -14 -26 -19 -30 -19 -14 0 11 5 25 12 32 8 8 8 15 0 25 -7 8 -8 18 -4
23 4 4 -1 2 -10 -5 -21 -15 -23 -22 -7 -18 6 1 14 -4 16 -11 3 -8 -1 -10 -12
-6 -11 5 -18 0 -22 -15 -3 -11 -9 -18 -14 -15 -5 3 -5 14 1 25 6 10 8 19 4 19
-4 0 1 9 12 21 14 15 15 20 4 17 -8 -2 -14 3 -12 10 1 8 -2 11 -8 7 -8 -5 -8
-11 0 -20 8 -9 8 -15 0 -20 -6 -3 -8 -10 -5 -15 3 -4 -4 -19 -15 -31 -11 -13
-19 -19 -20 -12 0 6 5 15 11 18 6 4 8 13 5 20 -2 7 1 18 7 25 9 10 9 11 -3 4
-8 -5 -18 -9 -22 -9 -3 0 -10 -4 -15 -8 -4 -5 -2 -7 6 -5 7 2 15 -2 18 -8 5
-14 -29 -13 -39 1 -4 5 -2 16 5 23 12 15 20 48 9 37 -4 -4 -7 -12 -7 -18 -1
-7 -6 -11 -12 -10 -11 2 -10 -27 1 -46 3 -5 -2 -15 -11 -22 -14 -12 -15 -11
-9 8 4 12 2 24 -3 27 -5 4 -8 15 -6 26 2 12 0 18 -5 15 -4 -3 -7 -13 -5 -23 1
-9 -3 -24 -9 -32 -10 -13 -9 -13 7 -1 18 14 22 5 8 -18 -14 -21 24 -71 49 -66
23 5 44 -19 36 -41 -5 -14 -4 -15 9 -4 8 7 13 16 10 20 -6 9 12 23 32 26 15 3
27 -14 29 -38 3 -31 4 -31 24 -13 11 10 17 21 15 26 -6 8 13 23 30 24 17 2 35
-17 28 -28 -3 -6 -1 -7 6 -3 6 4 9 11 6 16 -6 9 13 25 30 25 6 0 10 7 10 16 0
9 6 24 14 33 8 9 11 19 8 23 -4 3 -2 12 4 20 6 7 8 13 4 13 -4 0 -2 6 4 13 8
10 7 14 -3 14 -7 0 -13 -7 -12 -16 1 -9 -3 -16 -9 -16 -5 0 -10 12 -9 26 0 15
-5 26 -13 26 -7 0 -9 -5 -4 -11 12 -16 6 -56 -13 -91 -14 -26 -16 -27 -16 -8
0 12 4 24 9 28 10 6 9 60 -1 70 -3 4 -4 -10 -2 -30 3 -30 1 -35 -11 -25 -7 6
-12 19 -10 29 2 10 -3 18 -11 18 -8 0 -10 -4 -5 -11 11 -14 7 -33 -13 -71 -14
-26 -16 -27 -16 -8 0 12 5 25 10 28 10 6 6 52 -5 63 -3 4 -3 -9 0 -27 5 -30 4
-33 -9 -21 -9 7 -13 17 -9 23 3 6 1 7 -5 3 -17 -10 -15 4 4 25 10 11 12 19 4
24 -6 4 -9 1 -8 -7z m11 -97 c-3 -11 -1 -27 4 -35 7 -13 12 -9 27 24 17 40 39
48 29 11 -3 -11 -1 -27 4 -35 7 -13 13 -8 27 25 13 29 21 38 29 30 7 -7 6 -16
-5 -28 -8 -10 -14 -24 -12 -31 1 -7 0 -8 -3 -2 -3 7 -11 3 -20 -9 -8 -13 -19
-18 -26 -14 -7 4 -16 8 -22 9 -16 1 -55 -38 -48 -49 3 -6 1 -7 -6 -3 -6 4 -9
11 -6 15 4 7 -19 34 -36 43 -4 2 -16 -5 -27 -15 -17 -15 -21 -16 -31 -3 -7 8
-21 13 -31 11 -12 -2 -25 6 -35 22 -10 14 -13 23 -7 19 5 -3 17 3 27 14 21 23
37 26 29 6 -7 -17 12 -31 21 -16 5 8 11 7 21 -1 12 -10 16 -8 21 9 3 12 9 22
13 22 5 0 6 -9 3 -19 -3 -11 -1 -27 4 -35 7 -13 12 -9 27 24 17 40 39 48 29
11z"/>
<path d="M6002 2667 c-7 -8 -7 -18 -2 -27 9 -13 10 -13 10 0 0 13 1 13 10 0 8
-13 10 -13 10 0 0 9 6 6 17 -9 l16 -24 18 22 c10 12 20 17 22 11 4 -7 5 -6 4
0 -2 7 -5 10 -8 8 -3 -2 -13 3 -22 10 -11 9 -17 10 -22 2 -5 -8 -12 -6 -25 5
-14 13 -19 13 -28 2z m22 -5 c3 -5 -1 -9 -9 -9 -8 0 -12 4 -9 9 3 4 7 8 9 8 2
0 6 -4 9 -8z m51 -32 c-5 -8 -11 -8 -17 -2 -6 6 -7 16 -3 22 5 8 11 8 17 2 6
-6 7 -16 3 -22z"/>
<path d="M6143 2650 c-8 -22 -8 -32 2 -40 21 -17 34 10 21 42 l-12 28 -11 -30z
m21 -32 c-9 -14 -23 2 -17 18 4 12 8 13 14 3 4 -7 5 -17 3 -21z"/>
<path d="M6207 2660 c-3 -13 -4 -26 -2 -29 3 -2 5 2 5 9 0 9 5 7 16 -6 15 -19
15 -19 6 1 -5 11 -11 27 -14 35 -3 10 -7 6 -11 -10z"/>
<path d="M6043 2765 c0 -8 4 -12 9 -9 5 3 6 10 3 15 -9 13 -12 11 -12 -6z"/>
<path d="M3292 3045 c0 -11 3 -31 7 -45 l7 -25 7 23 c4 12 9 32 12 45 6 21 5
21 -6 2 -12 -19 -12 -19 -20 0 -7 20 -8 20 -7 0z"/>
<path d="M2890 2480 c49 -39 158 -39 207 0 14 11 22 20 18 20 -5 0 -17 -7 -27
-17 -25 -23 -161 -22 -187 1 -10 9 -22 16 -27 16 -5 0 2 -9 16 -20z"/>
<path d="M6249 2485 c-35 -36 -182 -38 -226 -4 -16 13 -17 12 -5 -3 8 -9 33
-24 57 -34 37 -14 51 -14 94 -4 43 10 131 60 105 60 -5 0 -16 -7 -25 -15z"/>
<path d="M2745 2405 c-27 -13 -94 -42 -147 -66 -54 -23 -102 -47 -107 -53 -23
-29 -71 -520 -71 -729 0 -149 8 -196 70 -402 21 -71 42 -164 45 -205 6 -61 11
-79 30 -95 22 -20 23 -25 30 -295 4 -151 9 -278 12 -282 2 -5 78 -8 168 -8
l165 0 2 256 c3 232 5 258 21 268 12 8 22 8 35 0 15 -10 17 -36 20 -268 l2
-256 177 2 178 3 1 25 c1 14 4 139 8 279 6 249 7 254 30 276 19 17 24 35 29
101 4 43 17 113 31 154 70 220 86 302 85 443 0 161 -8 192 -62 265 -60 81
-117 186 -156 287 -33 88 -71 225 -71 262 0 17 -8 26 -27 33 -16 6 -36 15 -45
20 -25 14 -28 13 -28 -12 0 -21 -30 -156 -49 -223 -5 -16 -19 -65 -32 -107
-12 -43 -25 -78 -30 -78 -4 0 -10 17 -13 38 -2 20 -10 75 -16 122 -18 127 -35
157 -61 108 -9 -17 -37 -198 -39 -255 -1 -28 -17 -11 -33 35 -23 66 -75 272
-83 332 -4 28 -9 50 -13 49 -3 0 -28 -11 -56 -24z"/>
<path d="M5903 2400 c-14 -6 -23 -18 -23 -31 0 -38 -41 -182 -77 -271 l-35
-87 22 -23 c13 -13 32 -43 44 -68 19 -41 25 -45 61 -48 22 -2 60 -13 84 -25
40 -19 247 -210 578 -530 44 -43 84 -80 88 -80 35 -8 57 363 36 598 -14 151
-39 372 -47 407 -3 15 -16 33 -28 41 -28 18 -287 130 -291 125 -1 -1 -10 -34
-19 -73 -43 -179 -61 -250 -92 -345 -11 -31 -23 17 -36 135 -8 78 -17 124 -28
138 -16 19 -16 19 -31 -4 -9 -14 -20 -70 -27 -137 -11 -112 -25 -164 -36 -132
-23 72 -47 160 -66 240 -35 155 -42 180 -49 179 -3 0 -16 -4 -28 -9z"/>
<path d="M5441 1775 c-91 -94 -102 -108 -99 -137 2 -20 13 -38 31 -52 l28 -21
32 20 c18 11 72 61 120 112 69 72 87 98 87 121 0 36 -27 62 -67 62 -25 0 -47
-17 -132 -105z"/>
<path d="M5841 1836 c3 -3 32 -13 64 -21 31 -9 70 -25 86 -36 16 -11 29 -17
29 -12 0 8 -25 27 -70 51 -25 14 -119 30 -109 18z"/>
<path d="M6031 1747 c2 -1 13 -9 24 -17 19 -14 19 -14 6 3 -7 9 -18 17 -24 17
-6 0 -8 -1 -6 -3z"/>
<path d="M5225 1715 c-39 -32 -29 -32 15 0 19 14 30 25 24 25 -5 -1 -22 -12
-39 -25z"/>
<path d="M3900 1716 c0 -3 9 -10 20 -16 11 -6 20 -8 20 -6 0 3 -9 10 -20 16
-11 6 -20 8 -20 6z"/>
<path d="M6085 1700 c3 -5 8 -10 11 -10 2 0 4 5 4 10 0 6 -5 10 -11 10 -5 0
-7 -4 -4 -10z"/>
<path d="M5736 1683 c-29 -8 -88 -47 -112 -74 -37 -42 -54 -89 -54 -154 0
-107 -15 -88 458 -573 163 -167 308 -310 323 -317 101 -53 202 -36 281 46 26
26 50 61 53 76 4 15 10 36 16 45 13 26 11 47 -11 107 -23 64 -18 59 -235 281
-370 381 -511 522 -543 542 -33 21 -136 33 -176 21z"/>
<path d="M3980 1660 c36 -28 196 -107 255 -125 77 -24 262 -51 345 -50 95 2
226 21 310 46 68 20 254 108 246 116 -2 3 -22 -5 -43 -16 -21 -11 -60 -30 -88
-41 -27 -12 -59 -25 -70 -30 -11 -5 -36 -12 -55 -16 -19 -3 -41 -11 -49 -18
-10 -7 -92 -11 -261 -11 -169 0 -251 4 -261 11 -8 7 -30 15 -49 18 -19 4 -48
13 -65 21 -93 43 -122 55 -129 55 -5 0 -28 14 -53 30 -49 34 -71 40 -33 10z"/>
<path d="M5165 1670 c-3 -6 1 -7 9 -4 18 7 21 14 7 14 -6 0 -13 -4 -16 -10z"/>
<path d="M5580 1669 c0 -5 5 -7 10 -4 6 3 10 8 10 11 0 2 -4 4 -10 4 -5 0 -10
-5 -10 -11z"/>
<path d="M6151 1643 c0 -5 14 -19 32 -32 l32 -25 -29 32 c-31 33 -36 37 -35
25z"/>
<path d="M5367 1533 c9 -7 29 -13 43 -13 14 0 34 6 43 13 15 10 8 12 -43 12
-51 0 -57 -2 -43 -12z"/>
<path d="M6315 1480 c16 -16 31 -28 33 -25 6 6 -40 55 -52 55 -6 0 3 -13 19
-30z"/>
<path d="M6380 1425 c13 -14 26 -25 28 -25 3 0 -5 11 -18 25 -13 14 -26 25
-28 25 -3 0 5 -11 18 -25z"/>
<path d="M3985 1367 c4 -17 26 -95 51 -173 34 -108 44 -156 44 -208 0 -63 2
-70 30 -96 30 -28 30 -29 30 -137 0 -59 3 -192 7 -295 l6 -188 179 0 178 0 0
261 c0 160 4 268 10 280 14 25 56 25 70 -1 7 -13 10 -112 10 -277 l-1 -258
187 0 187 0 2 30 c1 17 4 120 6 230 5 299 8 345 24 345 23 0 33 31 40 116 4
46 21 123 40 184 63 198 67 213 47 204 -248 -107 -505 -145 -737 -110 -122 19
-245 53 -348 97 l-69 29 7 -33z"/>
<path d="M6495 1310 c3 -5 8 -10 11 -10 2 0 4 5 4 10 0 6 -5 10 -11 10 -5 0
-7 -4 -4 -10z"/>
<path d="M6525 1280 c3 -5 16 -15 28 -21 22 -12 22 -12 3 10 -19 21 -43 30
-31 11z"/>
<path d="M5670 915 c0 -36 6 -50 30 -75 l30 -31 0 -178 c0 -98 3 -219 6 -269
l7 -92 168 0 169 0 0 154 0 154 -199 191 c-109 105 -201 191 -205 191 -3 0 -6
-20 -6 -45z"/>
<path d="M6150 696 c0 -2 8 -10 18 -17 15 -13 16 -12 3 4 -13 16 -21 21 -21
13z"/>
<path d="M6300 547 c23 -30 86 -57 148 -63 47 -5 68 -2 109 16 28 12 60 32 70
43 18 22 18 22 -2 5 -11 -9 -32 -20 -48 -23 -15 -4 -30 -11 -33 -16 -7 -12
-151 -12 -158 0 -3 5 -18 12 -33 16 -16 3 -37 14 -48 23 -19 16 -19 16 -5 -1z"/>
<path d="M6160 386 l0 -116 175 0 175 0 0 38 c0 20 3 46 6 58 5 20 1 21 -94
26 -105 6 -164 27 -231 83 l-31 27 0 -116z"/>
<path d="M2610 230 c8 -5 80 -10 160 -10 80 0 152 5 160 10 10 6 -43 10 -160
10 -117 0 -170 -4 -160 -10z"/>
<path d="M3027 229 c13 -13 319 -13 342 1 10 6 -49 9 -168 10 -133 0 -182 -3
-174 -11z"/>
<path d="M4160 230 c20 -13 337 -13 345 0 4 7 -57 10 -177 10 -122 0 -178 -4
-168 -10z"/>
<path d="M4600 230 c20 -13 357 -13 365 0 4 7 -61 10 -187 10 -128 0 -188 -4
-178 -10z"/>
<path d="M5743 229 c25 -15 315 -15 330 0 8 8 -36 11 -168 11 -132 -1 -175 -3
-162 -11z"/>
<path d="M6166 230 c16 -16 321 -17 336 -2 9 9 -28 12 -167 12 -123 0 -176 -3
-169 -10z"/>
</g>
</svg>
