<?xml version="1.0" standalone="no"?>
<!DOCTYPE svg PUBLIC "-//W3C//DTD SVG 20010904//EN"
 "http://www.w3.org/TR/2001/REC-SVG-20010904/DTD/svg10.dtd">
<svg version="1.0" xmlns="http://www.w3.org/2000/svg"
 width="514.000000pt" height="305.000000pt" viewBox="0 0 514.000000 305.000000"
 preserveAspectRatio="xMidYMid meet">
<metadata>
Created by potrace 1.16, written by Peter Selinger 2001-2019
</metadata>
<g transform="translate(0.000000,305.000000) scale(0.100000,-0.100000)"
fill="#000000" stroke="none">
<path d="M789 2510 c-106 -18 -215 -106 -266 -215 -26 -56 -28 -70 -31 -207
l-3 -148 -27 -6 c-66 -14 -98 -32 -129 -73 l-33 -43 0 -129 0 -129 83 0 c85 0
107 -8 107 -42 0 -27 -32 -38 -114 -38 l-76 0 0 -55 0 -54 86 -3 c70 -2 89 -6
98 -20 8 -13 8 -23 0 -35 -9 -15 -28 -19 -98 -21 l-86 -3 0 -54 0 -55 69 0
c82 0 121 -12 121 -38 0 -34 -21 -42 -107 -42 l-83 0 0 -64 c0 -72 22 -115 79
-153 l34 -23 615 0 c604 0 615 0 648 21 19 11 44 35 56 52 23 32 23 34 26 449
3 402 2 419 -17 457 -23 44 -63 76 -107 86 -68 16 -64 8 -64 113 0 189 -30
283 -118 371 -54 54 -116 87 -191 101 -61 11 -403 12 -472 0z m467 -231 c71
-34 86 -70 92 -215 l5 -124 -322 0 -321 0 0 108 c0 59 5 124 11 144 10 39 60
88 101 100 13 3 106 6 207 7 168 1 189 -1 227 -20z m-150 -698 c107 -65 120
-189 27 -270 l-43 -39 0 -76 0 -76 -60 0 -60 0 0 79 0 79 -36 21 c-70 42 -95
164 -47 230 52 70 151 93 219 52z"/>
<path d="M1890 1500 l0 -440 295 0 295 0 0 60 0 60 -225 0 -225 0 0 380 0 380
-70 0 -70 0 0 -440z"/>
<path d="M4000 1880 l0 -60 70 0 70 0 0 60 0 60 -70 0 -70 0 0 -60z"/>
<path d="M2732 1692 c-61 -22 -114 -69 -145 -127 -30 -59 -37 -240 -11 -321
26 -83 89 -146 168 -169 72 -21 220 -16 278 9 123 53 182 195 157 375 -13 89
-35 136 -84 179 -56 50 -99 64 -210 68 -80 4 -110 1 -153 -14z m235 -128 c48
-35 68 -89 68 -179 0 -67 -4 -87 -25 -124 -31 -55 -78 -81 -146 -81 -95 0
-152 62 -162 175 -8 109 24 193 86 222 41 19 146 11 179 -13z"/>
<path d="M3453 1691 c-71 -24 -119 -63 -151 -124 -25 -49 -27 -60 -27 -182 0
-144 13 -191 71 -249 54 -54 107 -71 224 -71 58 0 113 4 123 9 29 14 21 -39
-10 -74 -42 -45 -102 -57 -215 -42 -51 7 -103 15 -115 18 -22 6 -23 4 -23 -53
l0 -60 63 -14 c34 -8 112 -14 172 -13 99 0 115 3 165 28 67 33 107 85 120 157
6 28 10 190 10 359 l0 307 -77 11 c-117 18 -268 15 -330 -7z m226 -107 l31 -6
0 -184 0 -184 -27 -11 c-50 -19 -155 -15 -194 7 -52 30 -79 92 -79 181 0 142
53 200 186 202 28 1 66 -2 83 -5z"/>
<path d="M4000 1385 l0 -325 70 0 70 0 0 325 0 325 -70 0 -70 0 0 -325z"/>
<path d="M4270 1385 l0 -325 70 0 70 0 2 232 3 232 34 23 c81 55 184 55 225 0
20 -27 21 -43 24 -258 l3 -229 70 0 71 0 -4 253 c-3 238 -4 254 -25 294 -43
80 -108 108 -231 101 -55 -4 -87 -12 -132 -36 l-59 -30 -7 34 c-6 34 -7 34
-60 34 l-54 0 0 -325z"/>
</g>
</svg>
