<?xml version="1.0" standalone="no"?>
<!DOCTYPE svg PUBLIC "-//W3C//DTD SVG 20010904//EN"
 "http://www.w3.org/TR/2001/REC-SVG-20010904/DTD/svg10.dtd">
<svg version="1.0" xmlns="http://www.w3.org/2000/svg"
 width="225.000000pt" height="225.000000pt" viewBox="0 0 225.000000 225.000000"
 preserveAspectRatio="xMidYMid meet">
<metadata>
Created by potrace 1.16, written by Peter Selinger 2001-2019
</metadata>
<g transform="translate(0.000000,225.000000) scale(0.100000,-0.100000)"
fill="#000000" stroke="none">
<path d="M1977 1903 c-4 -3 -7 -294 -7 -645 0 -351 -3 -638 -7 -638 -5 0 -92
-11 -195 -24 l-187 -24 -108 -61 c-59 -34 -153 -88 -208 -120 -55 -33 -102
-57 -105 -55 -2 3 -3 39 -2 82 3 105 1 106 -89 93 -41 -6 -132 -18 -204 -26
-191 -22 -205 -25 -205 -41 0 -9 11 -14 30 -14 27 0 307 33 393 46 l37 6 0
-106 c0 -58 2 -106 4 -106 4 0 188 106 357 205 l106 62 179 22 c98 12 194 24
212 27 l33 5 -3 532 c-2 573 -6 708 -18 667 -6 -20 -8 -16 -9 22 -1 36 3 48
17 51 16 4 16 5 0 6 -10 0 -18 7 -18 15 0 8 8 17 18 19 14 4 14 5 1 6 -9 0
-19 -2 -22 -6z"/>
<path d="M1710 1730 c0 -5 4 -10 8 -10 5 0 14 -16 22 -35 9 -24 16 -31 22 -23
5 8 8 1 8 -19 0 -18 -4 -33 -10 -33 -5 0 -10 -7 -10 -15 0 -16 -30 -35 -54
-35 -13 0 -16 12 -16 60 0 55 2 60 23 61 21 1 21 1 -3 9 l-25 8 25 2 c25 2 25
2 -5 15 -40 19 -72 18 -79 -1 -3 -9 -6 -99 -6 -200 l0 -185 33 3 32 3 3 80 c3
82 9 95 49 95 13 0 36 12 53 28 24 21 32 38 36 75 7 62 0 84 -21 67 -12 -10
-15 -10 -15 3 0 8 6 17 13 20 6 3 -5 12 -25 21 -43 18 -58 20 -58 6z"/>
<path d="M245 1712 c6 -4 8 -88 4 -237 -8 -267 -11 -1085 -5 -1085 2 0 11 3
20 6 14 6 16 71 16 636 0 417 -3 627 -10 623 -5 -3 -10 3 -10 15 0 11 7 23 15
26 21 8 9 24 -18 24 -12 0 -17 -4 -12 -8z"/>
<path d="M1550 1705 c0 -8 -5 -15 -10 -15 -7 0 -8 -13 -4 -35 4 -22 2 -35 -4
-35 -6 0 -13 21 -15 48 -2 26 -4 -26 -5 -115 -2 -153 -3 -163 -24 -177 -15
-11 -26 -12 -40 -5 -16 9 -18 24 -18 169 l0 160 -32 -1 c-31 -2 -31 -2 -5 -6
17 -3 27 -10 27 -21 0 -11 -3 -13 -8 -5 -5 8 -12 8 -26 -2 -15 -12 -19 -32
-23 -132 -7 -151 4 -195 52 -218 71 -33 149 19 160 109 10 81 2 271 -12 285
-10 9 -13 8 -13 -4z"/>
<path d="M1217 1663 c6 -16 5 -16 -10 -4 -23 18 -26 7 -29 -108 l-3 -94 -41
99 c-29 69 -48 100 -60 102 -18 4 -17 3 1 -12 20 -15 20 -15 -2 -16 -16 0 -20
-5 -16 -20 3 -11 1 -20 -5 -20 -6 0 -13 8 -15 18 -3 9 -5 -65 -6 -165 l-1
-183 30 0 29 0 3 113 3 112 40 -103 40 -103 35 3 35 3 1 167 c0 92 -3 165 -8
162 -4 -3 -8 7 -7 23 0 25 1 26 9 8 5 -11 9 -15 9 -8 2 21 -11 43 -25 43 -9 0
-11 -6 -7 -17z"/>
<path d="M866 1625 c-3 -8 -10 -15 -16 -15 -6 0 -8 5 -4 11 4 8 0 8 -15 0 -43
-24 -49 -48 -51 -198 -1 -130 1 -144 19 -162 43 -43 100 -39 153 8 31 28 33
33 36 111 l4 82 -53 -7 c-61 -8 -72 -15 -67 -41 3 -13 11 -18 26 -17 20 3 22
-2 22 -42 0 -39 -4 -47 -26 -57 -44 -20 -54 7 -54 138 0 99 2 114 22 139 l21
28 -21 -12 c-12 -6 -26 -19 -31 -29 -9 -14 -10 -13 -11 10 0 15 4 30 10 33 6
4 7 -1 3 -11 -5 -14 1 -12 28 8 19 14 43 28 54 31 13 3 10 5 -11 6 -20 1 -34
-5 -38 -14z"/>
<path d="M707 1603 c-11 -3 -18 -13 -16 -26 3 -43 -4 -51 -11 -12 -4 23 -8
-42 -9 -156 l-1 -196 30 5 30 4 0 194 c0 107 -1 193 -2 193 -2 -1 -11 -3 -21
-6z"/>
<path d="M450 1548 c-14 -15 -20 -35 -20 -66 0 -47 18 -71 103 -135 38 -29 48
-62 25 -85 -14 -14 -58 -16 -58 -3 0 5 -4 21 -9 34 -8 19 -15 23 -35 20 -22
-5 -26 -11 -26 -40 0 -23 8 -42 26 -60 22 -22 32 -25 72 -20 66 7 102 49 102
116 0 44 -4 52 -36 81 -20 17 -47 36 -59 42 -35 16 -51 52 -37 83 6 14 20 25
29 25 15 0 16 2 3 10 -22 14 -28 12 -35 -11 -5 -14 -10 -18 -14 -10 -8 13 -23
0 -34 -29 -4 -10 -6 -8 -6 6 -1 20 22 40 41 36 4 -1 5 5 2 13 -8 19 -9 19 -34
-7z"/>
<path d="M1765 1313 c-16 -3 -36 -9 -42 -15 -15 -12 -16 -95 -6 -290 l6 -128
37 0 c21 0 43 6 49 14 15 18 11 418 -4 421 -5 1 -23 0 -40 -2z"/>
<path d="M1585 1290 c-45 -6 -42 3 -71 -199 -12 -80 -21 -117 -26 -105 -4 11
-17 75 -28 143 -11 69 -24 129 -29 134 -5 5 -25 7 -44 3 -40 -8 -39 -3 -62
-166 -24 -169 -28 -171 -54 -24 -31 177 -25 164 -77 164 -27 0 -47 -5 -50 -13
-5 -14 91 -508 106 -544 8 -19 14 -21 47 -16 21 3 40 7 42 9 2 2 14 69 27 150
12 80 24 148 27 150 2 2 15 -60 28 -138 l24 -143 43 -3 c36 -3 43 0 51 20 17
46 103 570 95 577 -5 4 -27 4 -49 1z"/>
<path d="M916 1210 c-38 -12 -84 -56 -102 -99 -22 -52 -20 -393 2 -431 23 -39
65 -60 117 -60 59 0 94 14 133 52 48 45 56 91 52 289 -3 153 -5 178 -23 203
-33 49 -106 68 -179 46z m91 -110 c9 -18 12 -72 9 -189 -3 -156 -5 -166 -26
-183 -27 -22 -54 -23 -74 -2 -13 13 -16 44 -16 188 0 161 1 174 21 195 27 29
69 25 86 -9z"/>
<path d="M655 1168 c-3 -7 -6 -78 -7 -157 l-3 -145 -59 148 -59 148 -30 -6
c-16 -3 -38 -6 -48 -6 -18 0 -19 -13 -19 -296 l0 -296 43 7 c23 4 45 9 50 12
4 2 7 73 7 156 l1 152 55 -140 c30 -77 59 -144 64 -149 5 -5 29 -5 54 -2 l46
7 0 290 0 289 -45 0 c-27 0 -47 -5 -50 -12z"/>
</g>
</svg>
